<?xml version="1.0" encoding="UTF-8" standalone="no"?>
<!-- Created with Inkscape (http://www.inkscape.org/) -->

<svg
   xmlns:dc="http://purl.org/dc/elements/1.1/"
   xmlns:cc="http://creativecommons.org/ns#"
   xmlns:rdf="http://www.w3.org/1999/02/22-rdf-syntax-ns#"
   xmlns:svg="http://www.w3.org/2000/svg"
   xmlns="http://www.w3.org/2000/svg"
   xmlns:sodipodi="http://sodipodi.sourceforge.net/DTD/sodipodi-0.dtd"
   xmlns:inkscape="http://www.inkscape.org/namespaces/inkscape"
   width="210mm"
   height="297mm"
   id="svg2"
   version="1.1"
   inkscape:version="0.48.3.1 r9886"
   sodipodi:docname="Nuevo documento 1">
  <defs
     id="defs4">
    <clipPath
       clipPathUnits="userSpaceOnUse"
       id="clipPath3874">
      <path
         sodipodi:nodetypes="cccccc"
         inkscape:connector-curvature="0"
         id="path3876"
         d="M 169.21829,176.16785 -42.577969,338.3957 -14.246156,394.9935 191.25535,474.44939 242.5254,443.97066 z"
         style="fill:none;stroke:#ff0000;stroke-width:8.96877003px;stroke-linecap:butt;stroke-linejoin:miter;stroke-opacity:1" />
    </clipPath>
    <clipPath
       clipPathUnits="userSpaceOnUse"
       id="clipPath3878">
      <path
         style="fill:none;stroke:#ff0000;stroke-width:7.56296301px;stroke-linecap:butt;stroke-linejoin:miter;stroke-opacity:1"
         d="M 170.71206,174.02029 -7.8862577,310.8198 16.004699,358.5462 189.29494,425.54779 232.52869,399.84643 z"
         id="path3880"
         inkscape:connector-curvature="0"
         sodipodi:nodetypes="cccccc" />
    </clipPath>
  </defs>
  <sodipodi:namedview
     id="base"
     pagecolor="#ffffff"
     bordercolor="#666666"
     borderopacity="1.0"
     inkscape:pageopacity="0.0"
     inkscape:pageshadow="2"
     inkscape:zoom="7.9195959"
     inkscape:cx="202.8538"
     inkscape:cy="799.69017"
     inkscape:document-units="px"
     inkscape:current-layer="layer1"
     showgrid="false"
     inkscape:window-width="1280"
     inkscape:window-height="776"
     inkscape:window-x="0"
     inkscape:window-y="24"
     inkscape:window-maximized="1" />
  <metadata
     id="metadata7">
    <rdf:RDF>
      <cc:Work
         rdf:about="">
        <dc:format>image/svg+xml</dc:format>
        <dc:type
           rdf:resource="http://purl.org/dc/dcmitype/StillImage" />
        <dc:title></dc:title>
      </cc:Work>
    </rdf:RDF>
  </metadata>
  <g
     inkscape:label="Capa 1"
     inkscape:groupmode="layer"
     id="layer1">
    <path
       sodipodi:type="arc"
       style="fill:#ff0000;fill-rule:evenodd;stroke:#000000;stroke-width:1px;stroke-linecap:butt;stroke-linejoin:miter;stroke-opacity:1"
       id="path2985"
       sodipodi:cx="0"
       sodipodi:cy="0"
       sodipodi:rx="0"
       sodipodi:ry="0"
       d="M 0,0 A 0,0 0 1 1 0,0 0,0 0 1 1 0,0 z" />
    <path
       sodipodi:type="arc"
       style="fill:#b7ff91;stroke:#002b00;stroke-width:15.53402995999999980;stroke-linecap:butt;stroke-linejoin:miter;stroke-miterlimit:4;stroke-opacity:1;stroke-dasharray:none;fill-opacity:1"
       id="path2987"
       sodipodi:cx="174.28572"
       sodipodi:cy="178.07646"
       sodipodi:rx="211.42857"
       sodipodi:ry="211.42857"
       d="m 385.71429,178.07646 a 211.42857,211.42857 0 1 1 -422.857143,0 211.42857,211.42857 0 1 1 422.857143,0 z"
       transform="matrix(0.04895572,0.11907894,-0.11907894,0.04895572,224.24431,222.18203)"
       inkscape:export-filename="/home/yci5/path3810_2.png"
       inkscape:export-xdpi="96"
       inkscape:export-ydpi="96"
       clip-path="url(#clipPath3878)" />
    <path
       sodipodi:type="arc"
       style="fill:#ff2a2a;stroke:none"
       id="path2987-3"
       sodipodi:cx="174.28572"
       sodipodi:cy="178.07646"
       sodipodi:rx="211.42857"
       sodipodi:ry="211.42857"
       d="m 385.71429,178.07646 a 211.42857,211.42857 0 1 1 -422.857143,0 211.42857,211.42857 0 1 1 422.857143,0 z"
       transform="matrix(0.04128218,0.10041395,-0.10041395,0.04128218,222.5835,226.76506)"
       inkscape:export-filename="/home/yci5/path3810_2.png"
       inkscape:export-xdpi="96"
       inkscape:export-ydpi="96"
       clip-path="url(#clipPath3874)" />
    <path
       style="fill:#000000;stroke:none;stroke-width:0.14426346000000001px;stroke-linecap:butt;stroke-linejoin:miter;stroke-opacity:1"
       d="m 198.99917,246.76309 c -0.002,0.003 -0.0176,-0.003 -0.0229,-0.003 -1.04285,0.33239 -3.12108,-0.28942 -3.47812,-1.19005 -0.28866,-0.7282 0.62792,-2.2505 3.50089,1.19251 z"
       id="path3785"
       inkscape:connector-curvature="0"
       sodipodi:nodetypes="ccsc"
       inkscape:export-filename="/home/yci5/path3810_2.png"
       inkscape:export-xdpi="96"
       inkscape:export-ydpi="96" />
    <path
       sodipodi:nodetypes="ccsc"
       inkscape:connector-curvature="0"
       id="path3787"
       d="m 198.05969,250.11442 c 2.6e-4,-0.005 -0.0182,-0.008 -0.0227,-0.0131 -0.82374,-1.09703 -3.09687,-1.82226 -3.87773,-1.04383 -0.63137,0.62943 -0.51229,2.99304 3.90051,1.05673 z"
       style="fill:#000000;stroke:none;stroke-width:0.17166181999999999px;stroke-linecap:butt;stroke-linejoin:miter;stroke-opacity:1"
       inkscape:export-filename="/home/yci5/path3810_2.png"
       inkscape:export-xdpi="96"
       inkscape:export-ydpi="96" />
    <path
       style="fill:#000000;stroke:none;stroke-width:0.13059125999999999px;stroke-linecap:butt;stroke-linejoin:miter;stroke-opacity:1"
       d="m 203.35657,250.34492 c -0.002,0.003 -0.0147,-3.1e-4 -0.0192,0.002 -0.87283,0.4603 -2.6715,0.15157 -3.01708,-0.65931 -0.2794,-0.65567 0.43103,-2.2347 3.0366,0.65851 z"
       id="path3796"
       inkscape:connector-curvature="0"
       sodipodi:nodetypes="ccsc"
       inkscape:export-filename="/home/yci5/path3810_2.png"
       inkscape:export-xdpi="96"
       inkscape:export-ydpi="96" />
    <path
       sodipodi:nodetypes="ccsc"
       inkscape:connector-curvature="0"
       id="path3800"
       d="m 199.60052,256.77283 c 0.002,0.003 -0.0114,0.0129 -0.0137,0.0178 -0.26662,1.1039 -1.82044,2.51446 -2.71944,2.26885 -0.72687,-0.19859 -1.47205,-1.92498 2.733,-2.28698 z"
       style="fill:#000000;stroke:none;stroke-width:0.14426346000000001px;stroke-linecap:butt;stroke-linejoin:miter;stroke-opacity:1"
       inkscape:export-filename="/home/yci5/path3810_2.png"
       inkscape:export-xdpi="96"
       inkscape:export-ydpi="96" />
    <path
       style="fill:#000000;stroke:none;stroke-width:0.13195445000000000px;stroke-linecap:butt;stroke-linejoin:miter;stroke-opacity:1"
       d="m 203.5347,252.76931 c 0.002,0.003 -0.01,0.0107 -0.0108,0.0166 -0.18238,1.02806 -1.49541,2.2861 -2.30798,2.01344 -0.65694,-0.22046 -1.40625,-1.88151 2.31914,-2.02992 z"
       id="path3808"
       inkscape:connector-curvature="0"
       sodipodi:nodetypes="ccsc"
       inkscape:export-filename="/home/yci5/path3810_2.png"
       inkscape:export-xdpi="96"
       inkscape:export-ydpi="96" />
    <path
       style="fill:#000000;stroke:none;stroke-width:0.17166181999999999px;stroke-linecap:butt;stroke-linejoin:miter;stroke-opacity:1"
       d="m 198.39526,253.76395 c -8.7e-4,-0.004 -0.0198,-0.003 -0.0256,-0.005 -1.11044,-0.80556 -3.49635,-0.82873 -4.01313,0.14527 -0.41786,0.78754 0.39247,3.01111 4.0387,-0.13962 z"
       id="path3810"
       inkscape:connector-curvature="0"
       sodipodi:nodetypes="ccsc"
       inkscape:export-xdpi="96"
       inkscape:export-ydpi="96" />
  </g>
</svg>
